<?xml version="1.0" encoding="UTF-8"?>
<svg width="133px" height="30px" viewBox="0 0 133 30" version="1.1" xmlns="http://www.w3.org/2000/svg" xmlns:xlink="http://www.w3.org/1999/xlink">
    <title>Logo</title>
    <defs>
        <polygon id="path-1" points="0 0 23.7756404 0 23.7756404 24.0588432 0 24.0588432"></polygon>
        <polygon id="path-3" points="0 0 16.4785981 0 16.4785981 29.2666698 0 29.2666698"></polygon>
        <polygon id="path-5" points="0 0 24.7286274 0 24.7286274 24.8045236 0 24.8045236"></polygon>
    </defs>
    <g id="Design" stroke="none" stroke-width="1" fill="none" fill-rule="evenodd">
        <g id="Nestar_Menu" transform="translate(-121.000000, -30.000000)">
            <g id="Logo" transform="translate(120.000000, 30.000000)">
                <g id="Group-3" transform="translate(1.000000, 4.758963)">
                    <mask id="mask-2" fill="white">
                        <use xlink:href="#path-1"></use>
                    </mask>
                    <g id="Clip-2"></g>
                    <path d="M20.9924561,3.25504256 C22.8322532,5.37791072 23.7285534,7.9724176 23.7756404,11.0387827 L23.7756404,24.0588432 L18.1148782,24.0588432 L18.1148782,11.840799 C18.1148782,8.114008 15.661852,5.47219456 12.218132,5.47219456 C10.3783348,5.47219456 8.82149901,6.17981728 7.54784397,7.54786592 C6.27407917,8.91591456 5.66074029,10.614231 5.66074029,12.6427056 L5.66074029,24.0588432 L-2.19520001e-05,24.0588432 L-2.19520001e-05,0.47185824 L5.66074029,0.47185824 L5.66074029,3.96266528 C7.78371821,1.3209616 10.5670123,0 13.9163387,0 C16.7939166,0 19.152659,1.0849776 20.9924561,3.25504256" id="Fill-1" fill="#B8A4E2" mask="url(#mask-2)"></path>
                </g>
                <path d="M133.545539,12.7314356 C132.413475,10.7972449 129.913142,9.8537479 127.790384,10.2312125 C125.667515,10.5613706 123.780521,12.7786324 123.780521,16.2223524 L123.780521,28.8178612 L118.11954,28.8178612 L118.11954,5.23076646 L123.780521,5.23076646 L123.780521,8.58009286 C124.959783,6.74029574 126.469422,5.56092454 128.356416,5.13637286 C130.2433,4.71182118 131.941617,5.04197926 133.451256,6.22135046 L133.545539,12.7314356 Z" id="Fill-4" fill="#B8A4E2"></path>
                <path d="M32.859662,14.0051455 C34.7465462,15.2788005 37.0582015,15.9392265 39.8413859,15.9392265 C43.4266963,15.9392265 45.5967612,14.8542489 45.5967612,13.2975228 C45.5967612,11.2218514 43.7569641,9.99539318 40.5491183,9.99539318 C37.1524854,9.99539318 34.1806236,11.5520095 32.859662,14.0051455 M47.9555036,18.7225205 C45.8797225,20.137766 43.190822,20.8453887 39.8413859,20.8453887 C37.1996822,20.8453887 34.6994591,20.1849628 32.3407167,18.911198 C33.2370169,21.9775631 36.2561852,24.0532345 40.8321894,24.0532345 C44.181406,24.0532345 46.8704163,23.1569343 48.8518038,21.3171372 L48.8518038,27.4026706 C46.6817388,28.6763257 43.9928383,29.2895548 40.7848828,29.2895548 C36.8224371,29.2895548 33.4730009,28.1102933 30.6897068,25.7515509 C27.9536095,23.3457215 26.5855609,20.4680338 26.5855609,17.0243138 C26.5855609,13.6277906 27.9536095,10.7501029 30.6897068,8.3442735 C33.4730009,5.9383343 36.8224371,4.7589631 40.7848828,4.7589631 C43.8984447,4.7589631 46.3987775,5.56086966 48.2384649,7.1649023 C50.1254588,8.76882518 51.068846,10.7501029 51.068846,13.1088453 C51.068846,15.4203909 50.0310652,17.3073849 47.9555036,18.7225205" id="Fill-6" fill="#B8A4E2"></path>
                <path d="M52.9097298,26.0345891 L52.9097298,19.807575 C54.0889912,20.9869462 55.645827,21.9775302 57.5327112,22.7795465 C59.4198149,23.5814531 61.1652184,24.0061145 62.7218347,24.0061145 C65.8355064,24.0061145 67.3922325,23.3456886 67.3922325,22.024727 C67.3922325,21.2700172 65.976987,20.4208041 63.1466059,19.4774169 L60.9292344,18.7697942 C55.315669,17.0242809 52.6738555,15.1373967 52.6738555,11.1746217 C52.6738555,7.44794042 56.4006466,4.75893018 62.9578187,4.75893018 C66.8732872,4.75893018 69.9867394,5.74962394 72.2981752,7.68381466 L72.2981752,13.6749545 C70.411291,11.7879606 66.8732872,10.0896441 63.4766542,10.0896441 C60.1273278,10.0896441 58.4290114,10.6085894 58.4290114,11.6463702 C58.4290114,12.0709219 59.089547,12.4954735 60.2216117,13.0145286 L62.0143218,13.6749545 C63.193693,14.0523094 65.2221675,14.7128451 66.3543419,15.1373967 C70.7415589,16.8354937 73.1946949,18.864078 73.1946949,22.2606012 C73.1946949,26.4119439 69.3735102,29.2895219 62.5803541,29.2895219 C58.8536728,29.2895219 55.5986302,28.204654 52.9097298,26.0345891" id="Fill-8" fill="#B8A4E2"></path>
                <g id="Group-12" transform="translate(73.930658, 0.022830)">
                    <mask id="mask-4" fill="white">
                        <use xlink:href="#path-3"></use>
                    </mask>
                    <g id="Clip-11"></g>
                    <path d="M15.2101018,23.794585 C11.8608851,23.794585 10.2097654,22.1906621 10.2097654,19.0300132 L10.2097654,10.8688084 L16.4785981,10.8688084 L16.4785981,5.20793638 L10.2097654,5.20793638 L10.2097654,-6.5856e-05 L4.54878368,-6.5856e-05 L4.54878368,5.20793638 L0,5.20793638 L0,10.8688084 L4.54878368,10.8688084 L4.54878368,19.2657777 C4.54878368,25.4455949 8.46436192,29.2666698 14.8327469,29.2666698 C15.4013037,29.2666698 15.9492256,29.2334125 16.4785981,29.1694225 L16.4785981,23.7053501 C16.0695226,23.7641815 15.6469466,23.794585 15.2101018,23.794585" id="Fill-10" fill="#B8A4E2" mask="url(#mask-4)"></path>
                </g>
                <g id="Group-15" transform="translate(91.966206, 4.720916)">
                    <mask id="mask-6" fill="white">
                        <use xlink:href="#path-5"></use>
                    </mask>
                    <g id="Clip-14"></g>
                    <path d="M14.9636095,15.935751 C12.9821122,14.0959539 10.8593538,13.3883312 8.54780824,13.765686 C7.085366,14.0488668 6.18906584,14.662096 5.76451416,15.5583961 C5.33985272,16.454806 5.52874968,17.3511062 6.28334968,18.152903 C7.0381692,18.9549193 8.12336632,19.3322742 9.58558904,19.3322742 C11.6613702,19.3322742 13.6898447,17.9642256 14.9636095,15.935751 L14.9636095,15.935751 Z M19.4451103,24.8045785 C19.0204489,23.0590652 18.596007,21.6911264 18.0769519,20.606039 C15.482445,23.2949395 12.4633865,24.6157913 9.01966648,24.6157913 C5.10408824,24.6157913 1.94332952,22.5874265 0.811264883,19.9456131 C-1.12292584,16.0773414 0.292429363,10.6994307 6.23615288,9.09550779 C9.4913052,8.19920763 12.6519542,8.52936571 15.8127129,10.1804854 C15.3880514,9.00111419 14.7276255,8.05772699 13.7369318,7.25571067 C10.6235894,4.75548763 6.0003884,4.99136187 3.40577176,6.50089115 L1.61317144,1.31176763 C4.11339448,0.22679003 6.80240472,-0.19776165 9.67987288,0.0853093902 C12.5576703,0.36827067 15.1050902,1.45335803 17.3221324,3.29304539 C21.3319945,6.54819771 22.4641689,10.8882179 21.3319945,15.0394508 C22.9831142,17.3981932 24.1152886,20.1342905 24.7286274,23.2949395 L19.4451103,24.8045785 Z" id="Fill-13" fill="#B8A4E2" mask="url(#mask-6)"></path>
                </g>
            </g>
        </g>
    </g>
</svg>