<?xml version="1.0" encoding="UTF-8"?>
<svg width="133px" height="30px" viewBox="0 0 133 30" version="1.1" xmlns="http://www.w3.org/2000/svg" xmlns:xlink="http://www.w3.org/1999/xlink">
    <title>Logo</title>
    <defs>
        <polygon id="path-1" points="0 0 23.7756404 0 23.7756404 24.0588432 0 24.0588432"></polygon>
        <polygon id="path-3" points="0 0 16.4785981 0 16.4785981 29.2666698 0 29.2666698"></polygon>
        <polygon id="path-5" points="0 0 24.7286274 0 24.7286274 24.8045236 0 24.8045236"></polygon>
    </defs>
    <g id="Design" stroke="none" stroke-width="1" fill="none" fill-rule="evenodd">
        <g id="Nestar_Start" transform="translate(-121.000000, -30.000000)">
            <g id="Menu/black" transform="translate(120.000000, 30.000000)">
                <g id="Group-16" transform="translate(1.000000, 0.109760)">
                    <g id="Group-3" transform="translate(0.000000, 4.736133)">
                        <mask id="mask-2" fill="white">
                            <use xlink:href="#path-1"></use>
                        </mask>
                        <g id="Clip-2"></g>
                        <path d="M20.9924561,3.25504256 C22.8322532,5.37791072 23.7285534,7.9724176 23.7756404,11.0387827 L23.7756404,24.0588432 L18.1148782,24.0588432 L18.1148782,11.840799 C18.1148782,8.114008 15.661852,5.47219456 12.218132,5.47219456 C10.3783348,5.47219456 8.82149901,6.17981728 7.54784397,7.54786592 C6.27407917,8.91591456 5.66074029,10.614231 5.66074029,12.6427056 L5.66074029,24.0588432 L-2.19520001e-05,24.0588432 L-2.19520001e-05,0.47185824 L5.66074029,0.47185824 L5.66074029,3.96266528 C7.78371821,1.3209616 10.5670123,0 13.9163387,0 C16.7939166,0 19.152659,1.0849776 20.9924561,3.25504256" id="Fill-1" fill="#1D285B" mask="url(#mask-2)"></path>
                    </g>
                    <path d="M132.545539,12.7086055 C131.413475,10.7744148 128.913142,9.83091782 126.790384,10.2083825 C124.667515,10.5385405 122.780521,12.7558023 122.780521,16.1995223 L122.780521,28.7950311 L117.11954,28.7950311 L117.11954,5.20793638 L122.780521,5.20793638 L122.780521,8.55726278 C123.959783,6.71746566 125.469422,5.53809446 127.356416,5.11354278 C129.2433,4.6889911 130.941617,5.01914918 132.451256,6.19852038 L132.545539,12.7086055 Z" id="Fill-4" fill="#1D285B"></path>
                    <path d="M31.859662,13.9823154 C33.7465462,15.2559705 36.0582015,15.9163964 38.8413859,15.9163964 C42.4266963,15.9163964 44.5967612,14.8314188 44.5967612,13.2746927 C44.5967612,11.1990213 42.7569641,9.9725631 39.5491183,9.9725631 C36.1524854,9.9725631 33.1806236,11.5291794 31.859662,13.9823154 M46.9555036,18.6996905 C44.8797225,20.1149359 42.190822,20.8225586 38.8413859,20.8225586 C36.1996822,20.8225586 33.6994591,20.1621327 31.3407167,18.8883679 C32.2370169,21.954733 35.2561852,24.0304044 39.8321894,24.0304044 C43.181406,24.0304044 45.8704163,23.1341042 47.8518038,21.2943071 L47.8518038,27.3798405 C45.6817388,28.6534956 42.9928383,29.2667247 39.7848828,29.2667247 C35.8224371,29.2667247 32.4730009,28.0874633 29.6897068,25.7287209 C26.9536095,23.3228914 25.5855609,20.4452037 25.5855609,17.0014837 C25.5855609,13.6049605 26.9536095,10.7272729 29.6897068,8.32144342 C32.4730009,5.91550422 35.8224371,4.73613302 39.7848828,4.73613302 C42.8984447,4.73613302 45.3987775,5.53803958 47.2384649,7.14207222 C49.1254588,8.7459951 50.068846,10.7272729 50.068846,13.0860153 C50.068846,15.3975609 49.0310652,17.2845548 46.9555036,18.6996905" id="Fill-6" fill="#1D285B"></path>
                    <path d="M51.9097298,26.011759 L51.9097298,19.7847449 C53.0889912,20.9641161 54.645827,21.9547001 56.5327112,22.7567164 C58.4198149,23.558623 60.1652184,23.9832844 61.7218347,23.9832844 C64.8355064,23.9832844 66.3922325,23.3228585 66.3922325,22.0018969 C66.3922325,21.2471871 64.976987,20.397974 62.1466059,19.4545868 L59.9292344,18.7469641 C54.315669,17.0014508 51.6738555,15.1145667 51.6738555,11.1517916 C51.6738555,7.42511034 55.4006466,4.7361001 61.9578187,4.7361001 C65.8732872,4.7361001 68.9867394,5.72679386 71.2981752,7.66098458 L71.2981752,13.6521244 C69.411291,11.7651305 65.8732872,10.066814 62.4766542,10.066814 C59.1273278,10.066814 57.4290114,10.5857593 57.4290114,11.6235401 C57.4290114,12.0480918 58.089547,12.4726435 59.2216117,12.9916985 L61.0143218,13.6521244 C62.193693,14.0294793 64.2221675,14.690015 65.3543419,15.1145667 C69.7415589,16.8126636 72.1946949,18.8412479 72.1946949,22.2377711 C72.1946949,26.3891139 68.3735102,29.2666918 61.5803541,29.2666918 C57.8536728,29.2666918 54.5986302,28.1818239 51.9097298,26.011759" id="Fill-8" fill="#1D285B"></path>
                    <g id="Group-12" transform="translate(72.930658, 0.000000)">
                        <mask id="mask-4" fill="white">
                            <use xlink:href="#path-3"></use>
                        </mask>
                        <g id="Clip-11"></g>
                        <path d="M15.2101018,23.794585 C11.8608851,23.794585 10.2097654,22.1906621 10.2097654,19.0300132 L10.2097654,10.8688084 L16.4785981,10.8688084 L16.4785981,5.20793638 L10.2097654,5.20793638 L10.2097654,-6.5856e-05 L4.54878368,-6.5856e-05 L4.54878368,5.20793638 L0,5.20793638 L0,10.8688084 L4.54878368,10.8688084 L4.54878368,19.2657777 C4.54878368,25.4455949 8.46436192,29.2666698 14.8327469,29.2666698 C15.4013037,29.2666698 15.9492256,29.2334125 16.4785981,29.1694225 L16.4785981,23.7053501 C16.0695226,23.7641815 15.6469466,23.794585 15.2101018,23.794585" id="Fill-10" fill="#1D285B" mask="url(#mask-4)"></path>
                    </g>
                    <g id="Group-15" transform="translate(90.966206, 4.698086)">
                        <mask id="mask-6" fill="white">
                            <use xlink:href="#path-5"></use>
                        </mask>
                        <g id="Clip-14"></g>
                        <path d="M14.9636095,15.935751 C12.9821122,14.0959539 10.8593538,13.3883312 8.54780824,13.765686 C7.085366,14.0488668 6.18906584,14.662096 5.76451416,15.5583961 C5.33985272,16.454806 5.52874968,17.3511062 6.28334968,18.152903 C7.0381692,18.9549193 8.12336632,19.3322742 9.58558904,19.3322742 C11.6613702,19.3322742 13.6898447,17.9642256 14.9636095,15.935751 L14.9636095,15.935751 Z M19.4451103,24.8045785 C19.0204489,23.0590652 18.596007,21.6911264 18.0769519,20.606039 C15.482445,23.2949395 12.4633865,24.6157913 9.01966648,24.6157913 C5.10408824,24.6157913 1.94332952,22.5874265 0.811264883,19.9456131 C-1.12292584,16.0773414 0.292429363,10.6994307 6.23615288,9.09550779 C9.4913052,8.19920763 12.6519542,8.52936571 15.8127129,10.1804854 C15.3880514,9.00111419 14.7276255,8.05772699 13.7369318,7.25571067 C10.6235894,4.75548763 6.0003884,4.99136187 3.40577176,6.50089115 L1.61317144,1.31176763 C4.11339448,0.22679003 6.80240472,-0.19776165 9.67987288,0.0853093902 C12.5576703,0.36827067 15.1050902,1.45335803 17.3221324,3.29304539 C21.3319945,6.54819771 22.4641689,10.8882179 21.3319945,15.0394508 C22.9831142,17.3981932 24.1152886,20.1342905 24.7286274,23.2949395 L19.4451103,24.8045785 Z" id="Fill-13" fill="#1D285B" mask="url(#mask-6)"></path>
                    </g>
                </g>
            </g>
        </g>
    </g>
</svg>